:SAMPLES-PER-SECOND 30
:FULLY-SPECIFIED
:DEGREES
538
root  63.93 38.8138 22.3519 175.583 44.4797 168.515
RightUpLeg  -20.9317 -17.6083 -7.70944
RightLeg  13.2135 4.05323 4.1627
RightFoot  4.4026 0.0663729 -0.262687
RightToes  -6.98493e-010 0 -3.6325e-017
Spine  18.3642 -2.83318 -2.44768
Spine1  3.66561 -4.0665 2.73821
HEad  -10.9109 19.5204 -18.4876
LeftShoulder1  1.67959 -3.06523 -19.0323
LeftArm  -9.02836 -39.4541 -46.3586
LeftForeArm  -4.07605 -52.2562 -14.9046
LeftHand  -0.0705186 1.6154 1.94474
RightShoulder  0.156431 -2.8678 19.0473
RightArm  -29.0799 -1.53239 38.6439
RightForeArm  89.1684 75.5078 123.71
RightHand  -0.112667 2.49155 -1.78192
LeftUpLeg  -13.3529 5.59396 -1.68397
LeftLeg  19.4478 4.59077 2.12599
LeftFoot  -5.888 0.229895 -4.10861
LeftToes  7.91257e-010 -1.64976e-010 -3.02228e-011
539
root  63.8788 38.8371 22.7063 175.9 41.2482 169.007
RightUpLeg  -19.9077 -17.9801 -8.47928
RightLeg  12.2081 1.26022 4.08581
RightFoot  4.70983 0.0274377 0.0328013
RightToes  -6.98493e-010 0 -3.6325e-017
Spine  17.0562 -2.95936 -1.99822
Spine1  4.82037 -4.00318 2.38489
HEad  -11.1653 18.9295 -18.2047
LeftShoulder1  1.71863 -2.96773 -20.1157
LeftArm  -7.23886 -35.8973 -46.5893
LeftForeArm  -2.70959 -55.7212 -16.9287
LeftHand  -0.0557249 1.35573 1.41175
RightShoulder  -0.0243141 -3.57152 20.1203
RightArm  -25.8035 11.1788 33.5808
RightForeArm  36.8189 78.1134 76.18
RightHand  -0.409884 2.54745 -6.24752
LeftUpLeg  -10.8311 6.46328 -1.12593
LeftLeg  20.774 5.33868 2.56065
LeftFoot  -7.05844 0.206709 -4.38256
LeftToes  7.91257e-010 -1.64976e-010 -3.02228e-011
540
root  63.7426 38.8793 23.0625 176.175 37.9695 169.768
RightUpLeg  -18.7847 -18.1883 -9.10438
RightLeg  11.3482 -1.83544 3.91876
RightFoot  5.27991 -0.0171808 0.365451
RightToes  -6.98493e-010 0 -3.6325e-017
Spine  16.5932 -3.30993 -1.51654
Spine1  5.27039 -4.19759 2.09308
HEad  -11.1473 18.4022 -18.1562
LeftShoulder1  1.62259 -2.45699 -20.8006
LeftArm  -6.01602 -32.5368 -46.7945
LeftForeArm  -1.33761 -58.5884 -18.9122
LeftHand  -0.0599421 1.53371 1.57385
RightShoulder  -0.184768 -4.14535 21.1204
RightArm  -25.9159 4.83816 34.2583
RightForeArm  62.4303 78.0613 101.149
RightHand  -0.417264 2.16749 -6.58375
LeftUpLeg  -8.01663 6.81294 3.32999e-005
LeftLeg  21.6312 6.56696 3.19337
LeftFoot  -7.54613 0.180091 -4.06873
LeftToes  7.91257e-010 -1.64976e-010 -3.02228e-011
541
root  63.5236 38.821 23.4752 177.176 34.6208 170.604
RightUpLeg  -18.9509 -18.6939 -9.38597
RightLeg  11.0994 -4.72956 3.8441
RightFoot  5.73051 -0.0221682 0.411
RightToes  -6.98493e-010 0 -3.6325e-017
Spine  16.4331 -3.59957 -1.54968
Spine1  4.71799 -4.58676 2.64665
HEad  -10.9502 17.3364 -17.9278
LeftShoulder1  1.52389 -2.08966 -20.8583
LeftArm  -5.45121 -29.0449 -47.4613
LeftForeArm  1.3164 -60.9122 -20.7304
LeftHand  -0.0750446 1.36971 1.99687
RightShoulder  -0.288195 -4.48021 22.3998
RightArm  -25.8255 -0.286375 34.1889
RightForeArm  81.4242 76.7956 118.475
RightHand  -0.313469 1.99015 -5.11817
LeftUpLeg  -6.51302 7.32657 1.43933
LeftLeg  22.8232 7.59382 3.81431
LeftFoot  -8.08494 0.161539 -3.98834
LeftToes  7.91257e-010 -1.64976e-010 -3.02228e-011
542
root  63.2221 38.7203 23.8953 177.805 31.4751 171.704
RightUpLeg  -18.4679 -19.1369 -9.68022
RightLeg  10.3937 -7.08054 3.99542
RightFoot  6.31213 0.00289338 0.258689
RightToes  -6.98493e-010 0 -3.6325e-017
Spine  16.967 -3.77306 -2.36295
Spine1  4.24731 -5.30897 4.73937
HEad  -11.8062 17.3555 -18.0079
LeftShoulder1  1.25069 -0.991845 -21.4198
LeftArm  -5.39462 -25.0766 -47.8886
LeftForeArm  5.11807 -63.9901 -23.5907
LeftHand  -0.0556092 0.974319 1.33587
RightShoulder  -0.236525 -4.3024 22.2697
RightArm  -25.9804 -4.89344 35.0526
RightForeArm  92.9952 75.1112 129.188
RightHand  -0.238377 1.96299 -3.9282
LeftUpLeg  -4.73811 10.132 3.70722
LeftLeg  23.9559 6.36207 3.4186
LeftFoot  -8.79371 0.145162 -4.15157
LeftToes  7.91257e-010 -1.64976e-010 -3.02228e-011
543
root  62.7973 38.6131 24.3056 178.171 28.5064 172.626
RightUpLeg  -18.3071 -19.2763 -10.1137
RightLeg  10.3315 -10.0627 3.86055
RightFoot  6.90433 -0.0603865 0.672037
RightToes  -6.98493e-010 0 -3.6325e-017
Spine  17.0442 -3.90528 -1.75277
Spine1  4.57921 -5.4158 4.95558
HEad  -12.5051 16.2028 -17.877
LeftShoulder1  1.19588 -0.805774 -21.3702
LeftArm  -5.25002 -22.0078 -47.6211
LeftForeArm  8.21845 -66.5924 -26.7396
LeftHand  -0.0753635 0.867591 1.83452
RightShoulder  -0.294556 -4.49477 22.5845
RightArm  -26.4506 -8.78423 35.3508
RightForeArm  100.858 73.5136 136.031
RightHand  -0.188691 1.65708 -3.26203
LeftUpLeg  -2.62991 11.1687 5.65632
LeftLeg  24.0049 6.16251 3.3247
LeftFoot  -8.69872 0.144198 -3.998
LeftToes  7.91257e-010 -1.64976e-010 -3.02228e-011
